<?xml version="1.0" encoding="UTF-8"?>
<svg xmlns="http://www.w3.org/2000/svg" xmlns:xlink="http://www.w3.org/1999/xlink" width="40px" height="40px" viewBox="0 0 40 40" version="1.1">
<g id="surface1">
<path style=" stroke:none;fill-rule:nonzero;fill:rgb(86.27451%,6.27451%,20.784314%);fill-opacity:1;" d="M 20.667969 24.839844 C 21.75 23.71875 23.683594 21.355469 23.121094 18.417969 C 23.121094 18.417969 22.078125 20.613281 20.507812 20.132812 C 20.878906 18.453125 22.019531 16.265625 20.316406 13.148438 C 20.316406 13.148438 19.472656 15.152344 18.199219 15.324219 C 18.390625 13.816406 18.253906 11.980469 16.621094 10.09375 C 16.621094 10.09375 16.703125 11.644531 15.0625 12.035156 C 14.464844 10.84375 13.972656 9.601562 13.609375 8.304688 L 13.234375 7.453125 L 10.800781 7.382812 L 10.613281 7.679688 C 10.230469 9.328125 9.65625 10.925781 8.898438 12.421875 C 7.398438 11.644531 7.171875 9.695312 7.171875 9.695312 C 6.34375 11.671875 5.261719 13.816406 5.449219 15.324219 C 4.570312 14.488281 4.070312 12.871094 4.070312 12.871094 C 3.09375 15.203125 2.769531 18.453125 3.140625 20.132812 C 1.519531 20.613281 0.636719 18.273438 0.636719 18.273438 C 0.476562 21.113281 1.898438 23.71875 2.980469 24.839844 C 2.074219 24.773438 1.492188 24.613281 1.492188 24.613281 C 3.445312 33.09375 11.707031 32.511719 11.824219 32.5 C 11.824219 32.5 11.828125 32.5 11.835938 32.5 C 11.90625 32.53125 11.988281 32.546875 12.066406 32.546875 C 12.125 32.546875 12.179688 32.539062 12.234375 32.523438 C 13.941406 32.570312 20.453125 32.269531 22.15625 24.863281 C 22.160156 24.867188 21.574219 24.773438 20.667969 24.839844 Z M 20.667969 24.839844 "/>
<path style=" stroke:none;fill-rule:nonzero;fill:rgb(60.784314%,67.45098%,5.882353%);fill-opacity:1;" d="M 18.199219 16.261719 C 19.472656 16.089844 20.316406 14.085938 20.316406 14.085938 C 20.898438 15.148438 21.144531 16.101562 21.207031 16.96875 C 21.285156 15.871094 21.117188 14.613281 20.316406 13.148438 C 20.316406 13.148438 19.5 15.082031 18.261719 15.308594 C 18.261719 15.640625 18.238281 15.957031 18.199219 16.261719 Z M 18.199219 16.261719 "/>
<path style=" stroke:none;fill-rule:nonzero;fill:rgb(60.784314%,67.45098%,5.882353%);fill-opacity:1;" d="M 2.917969 24.832031 C 2.449219 24.824219 1.492188 24.613281 1.492188 24.613281 C 1.570312 24.964844 1.667969 25.292969 1.769531 25.613281 C 2.023438 25.664062 2.609375 25.738281 3.144531 25.777344 C 2.890625 25.511719 3.039062 25.339844 2.917969 24.832031 Z M 2.917969 24.832031 "/>
<path style=" stroke:none;fill-rule:nonzero;fill:rgb(60.784314%,67.45098%,5.882353%);fill-opacity:1;" d="M 20.742188 20.179688 C 20.652344 20.492188 20.570312 20.789062 20.507812 21.070312 C 22.078125 21.550781 23.117188 19.355469 23.117188 19.355469 C 23.15625 19.554688 23.183594 19.746094 23.199219 19.9375 C 23.238281 19.453125 23.21875 18.945312 23.117188 18.417969 C 23.121094 18.417969 22.179688 20.390625 20.742188 20.179688 Z M 20.742188 20.179688 "/>
<path style=" stroke:none;fill-rule:nonzero;fill:rgb(60.784314%,67.45098%,5.882353%);fill-opacity:1;" d="M 3.140625 21.070312 C 3.082031 20.804688 3.042969 20.492188 3.019531 20.15625 C 1.476562 20.484375 0.636719 18.273438 0.636719 18.273438 C 0.617188 18.59375 0.625 18.914062 0.644531 19.226562 C 0.707031 19.390625 1.582031 21.53125 3.140625 21.070312 Z M 3.140625 21.070312 "/>
<path style=" stroke:none;fill-rule:nonzero;fill:rgb(60.784314%,67.45098%,5.882353%);fill-opacity:1;" d="M 20.3125 25.777344 C 20.9375 25.777344 21.65625 25.753906 21.910156 25.777344 C 22 25.484375 22.085938 25.183594 22.160156 24.867188 C 22.160156 24.867188 21.207031 24.757812 20.667969 24.839844 C 20.375 25.214844 20.558594 25.519531 20.3125 25.777344 Z M 20.3125 25.777344 "/>
<path style=" stroke:none;fill-rule:nonzero;fill:rgb(60.784314%,67.45098%,5.882353%);fill-opacity:1;" d="M 4.070312 13.808594 C 4.070312 13.808594 4.570312 15.425781 5.449219 16.261719 C 5.261719 14.753906 6.34375 12.609375 7.171875 10.632812 C 7.171875 10.632812 7.398438 12.582031 8.898438 13.359375 C 9.65625 11.863281 10.230469 10.265625 10.613281 8.617188 L 10.800781 8.320312 L 13.234375 8.390625 L 13.609375 9.242188 C 13.972656 10.539062 14.464844 11.78125 15.0625 12.972656 C 16.703125 12.582031 16.621094 11.03125 16.621094 11.03125 C 17.757812 12.34375 18.167969 13.632812 18.25 14.804688 C 18.339844 13.402344 18.070312 11.765625 16.621094 10.09375 C 16.621094 10.09375 16.703125 11.644531 15.0625 12.035156 C 14.464844 10.84375 13.972656 9.601562 13.609375 8.304688 L 13.234375 7.453125 L 10.800781 7.382812 L 10.613281 7.679688 C 10.230469 9.328125 9.65625 10.925781 8.898438 12.421875 C 7.398438 11.644531 7.171875 9.695312 7.171875 9.695312 C 6.34375 11.671875 5.261719 13.816406 5.449219 15.324219 C 4.570312 14.488281 4.070312 12.871094 4.070312 12.871094 C 3.289062 14.730469 2.929688 17.171875 3.003906 18.9375 C 3.0625 17.308594 3.421875 15.355469 4.070312 13.808594 Z M 4.070312 13.808594 "/>
<path style=" stroke:none;fill-rule:nonzero;fill:rgb(60.784314%,67.45098%,5.882353%);fill-opacity:1;" d="M 13.082031 15.765625 C 11.460938 16.246094 10.578125 13.90625 10.578125 13.90625 C 10.417969 16.75 11.839844 19.355469 12.921875 20.472656 "/>
<path style=" stroke:none;fill-rule:nonzero;fill:rgb(60.784314%,67.45098%,5.882353%);fill-opacity:1;" d="M 8.0625 20.8125 C 6.441406 21.292969 5.558594 18.953125 5.558594 18.953125 C 5.398438 21.796875 6.820312 24.402344 7.902344 25.519531 "/>
<path style=" stroke:none;fill-rule:nonzero;fill:rgb(60.784314%,67.45098%,5.882353%);fill-opacity:1;" d="M 15.585938 20.8125 C 17.207031 21.292969 18.089844 18.953125 18.089844 18.953125 C 18.25 21.796875 16.828125 24.402344 15.75 25.519531 "/>
<path style=" stroke:none;fill-rule:nonzero;fill:rgb(60.784314%,67.45098%,5.882353%);fill-opacity:1;" d="M 13.082031 25.859375 C 11.460938 26.339844 10.578125 24 10.578125 24 C 10.460938 26.132812 11.230469 28.128906 12.078125 29.46875 "/>
<path style=" stroke:none;fill-rule:nonzero;fill:rgb(40%,47.843137%,11.372549%);fill-opacity:1;" d="M 11.636719 9.09375 C 10.027344 8.230469 5.207031 5.171875 7.894531 0.625 C 7.894531 0.625 8.398438 2.90625 10.03125 3.75 C 11.097656 4.304688 11.839844 5.335938 11.925781 6.542969 L 12.097656 8.792969 C 12.113281 9.039062 11.855469 9.210938 11.636719 9.09375 Z M 11.636719 9.09375 "/>
<path style=" stroke:none;fill-rule:nonzero;fill:rgb(40%,47.843137%,11.372549%);fill-opacity:1;" d="M 12.335938 9.09375 C 13.941406 8.269531 18.757812 5.308594 16.066406 0.757812 C 16.066406 0.757812 15.5625 3.035156 13.933594 3.878906 C 12.863281 4.433594 12.121094 5.464844 12.035156 6.671875 L 11.882812 8.792969 C 11.867188 9.039062 12.121094 9.207031 12.335938 9.09375 Z M 12.335938 9.09375 "/>
<path style=" stroke:none;fill-rule:nonzero;fill:rgb(47.843137%,61.568627%,9.411765%);fill-opacity:1;" d="M 7.894531 2.1875 C 7.894531 2.1875 8.398438 4.46875 10.03125 5.3125 C 11.097656 5.867188 11.953125 6.898438 12.039062 8.105469 L 11.925781 6.542969 C 11.839844 5.335938 11.101562 4.304688 10.03125 3.75 C 8.398438 2.90625 7.894531 0.625 7.894531 0.625 C 7.148438 1.890625 6.984375 3.046875 7.167969 4.078125 C 7.277344 3.476562 7.503906 2.847656 7.894531 2.1875 Z M 7.894531 2.1875 "/>
<path style=" stroke:none;fill-rule:nonzero;fill:rgb(47.843137%,61.568627%,9.411765%);fill-opacity:1;" d="M 12.035156 7.980469 C 12.121094 6.773438 12.863281 5.996094 13.933594 5.441406 C 15.5625 4.597656 16.066406 2.320312 16.066406 2.320312 C 16.457031 2.976562 16.6875 3.609375 16.792969 4.207031 C 16.976562 3.175781 16.8125 2.019531 16.066406 0.757812 C 16.066406 0.757812 15.5625 3.035156 13.933594 3.878906 C 12.863281 4.433594 12.121094 5.464844 12.035156 6.671875 Z M 12.035156 7.980469 "/>
<path style=" stroke:none;fill-rule:nonzero;fill:rgb(96.470588%,96.862745%,90.196078%);fill-opacity:1;" d="M 22.640625 36.945312 C 23.71875 37.972656 25.988281 39.816406 28.808594 39.277344 C 28.808594 39.277344 26.703125 38.285156 27.160156 36.792969 C 28.773438 37.148438 30.875 38.234375 33.871094 36.609375 C 33.871094 36.609375 31.945312 35.804688 31.777344 34.59375 C 33.226562 34.773438 34.992188 34.644531 36.804688 33.089844 C 36.804688 33.089844 35.3125 33.167969 34.9375 31.605469 C 36.082031 31.035156 37.277344 30.566406 38.519531 30.222656 L 39.339844 29.863281 L 39.375 28.617188 L 15.257812 28.617188 C 15.246094 28.660156 15.238281 28.707031 15.238281 28.753906 C 15.238281 28.808594 15.246094 28.859375 15.261719 28.914062 C 15.699219 30.449219 15.507812 36.738281 22.617188 38.363281 C 22.617188 38.363281 22.707031 37.808594 22.640625 36.945312 Z M 22.640625 36.945312 "/>
<path style=" stroke:none;fill-rule:nonzero;fill:rgb(94.117647%,9.803922%,30.196078%);fill-opacity:1;" d="M 27.160156 35.855469 C 27.054688 36.199219 27.089844 36.515625 27.199219 36.800781 C 28.804688 37.164062 30.898438 38.21875 33.871094 36.609375 C 33.871094 36.609375 33.425781 36.421875 32.945312 36.097656 C 30.433594 37.066406 28.601562 36.171875 27.160156 35.855469 Z M 27.160156 35.855469 "/>
<path style=" stroke:none;fill-rule:nonzero;fill:rgb(94.117647%,9.803922%,30.196078%);fill-opacity:1;" d="M 22.617188 37.425781 C 16.242188 35.96875 15.347656 30.832031 15.265625 28.617188 L 15.257812 28.617188 C 15.246094 28.660156 15.238281 28.707031 15.238281 28.753906 C 15.238281 28.808594 15.246094 28.859375 15.261719 28.914062 C 15.214844 30.539062 15.507812 36.738281 22.617188 38.363281 C 22.617188 38.363281 22.695312 37.867188 22.648438 37.085938 C 22.636719 37.300781 22.617188 37.425781 22.617188 37.425781 Z M 22.617188 37.425781 "/>
<path style=" stroke:none;fill-rule:nonzero;fill:rgb(94.117647%,9.803922%,30.196078%);fill-opacity:1;" d="M 22.640625 36.007812 C 22.671875 36.398438 22.667969 36.71875 22.65625 36.960938 C 23.738281 37.992188 26 39.8125 28.808594 39.277344 C 28.808594 39.277344 28.148438 38.96875 27.648438 38.429688 C 25.371094 38.367188 23.566406 36.890625 22.640625 36.007812 Z M 22.640625 36.007812 "/>
<path style=" stroke:none;fill-rule:nonzero;fill:rgb(94.117647%,9.803922%,30.196078%);fill-opacity:1;" d="M 35.84375 32.851562 C 34.375 33.742188 32.96875 33.804688 31.78125 33.65625 C 31.828125 34.027344 32.046875 34.359375 32.320312 34.644531 C 33.65625 34.722656 35.214844 34.457031 36.804688 33.089844 C 36.804688 33.089844 36.324219 33.113281 35.84375 32.851562 Z M 35.84375 32.851562 "/>
<path style=" stroke:none;fill-rule:nonzero;fill:rgb(94.117647%,9.803922%,30.196078%);fill-opacity:1;" d="M 39.339844 28.925781 L 38.519531 29.285156 C 37.277344 29.628906 36.082031 30.097656 34.9375 30.667969 C 35.015625 30.992188 35.144531 31.242188 35.292969 31.441406 C 36.328125 30.945312 37.402344 30.53125 38.519531 30.222656 L 39.339844 29.863281 L 39.375 28.617188 L 39.347656 28.617188 Z M 39.339844 28.925781 "/>
<path style=" stroke:none;fill-rule:nonzero;fill:rgb(21.176471%,14.117647%,12.54902%);fill-opacity:1;" d="M 25.203125 34.207031 C 25.382812 34.207031 25.558594 34.132812 25.6875 34.003906 C 25.816406 33.882812 25.886719 33.703125 25.886719 33.527344 C 25.886719 33.351562 25.816406 33.175781 25.6875 33.050781 C 25.429688 32.796875 24.976562 32.796875 24.71875 33.050781 C 24.59375 33.175781 24.519531 33.351562 24.519531 33.527344 C 24.519531 33.707031 24.59375 33.882812 24.71875 34.003906 C 24.847656 34.132812 25.023438 34.207031 25.203125 34.207031 Z M 25.203125 34.207031 "/>
<path style=" stroke:none;fill-rule:nonzero;fill:rgb(21.176471%,14.117647%,12.54902%);fill-opacity:1;" d="M 22.46875 34.203125 C 22.644531 34.203125 22.824219 34.132812 22.949219 34.003906 C 23.078125 33.882812 23.148438 33.703125 23.148438 33.527344 C 23.148438 33.351562 23.078125 33.175781 22.949219 33.050781 C 22.695312 32.796875 22.234375 32.796875 21.984375 33.050781 C 21.855469 33.175781 21.78125 33.351562 21.78125 33.527344 C 21.78125 33.707031 21.855469 33.878906 21.980469 34.003906 C 22.109375 34.132812 22.289062 34.203125 22.46875 34.203125 Z M 22.46875 34.203125 "/>
<path style=" stroke:none;fill-rule:nonzero;fill:rgb(21.176471%,14.117647%,12.54902%);fill-opacity:1;" d="M 21.308594 35.96875 C 21.488281 35.96875 21.667969 35.898438 21.792969 35.769531 C 21.921875 35.648438 21.996094 35.46875 21.996094 35.292969 C 21.996094 35.117188 21.921875 34.941406 21.792969 34.816406 C 21.539062 34.5625 21.078125 34.5625 20.828125 34.816406 C 20.699219 34.941406 20.625 35.117188 20.625 35.292969 C 20.625 35.472656 20.699219 35.648438 20.828125 35.769531 C 20.953125 35.898438 21.132812 35.96875 21.308594 35.96875 Z M 21.308594 35.96875 "/>
<path style=" stroke:none;fill-rule:nonzero;fill:rgb(21.176471%,14.117647%,12.54902%);fill-opacity:1;" d="M 27.9375 34.203125 C 28.117188 34.203125 28.296875 34.132812 28.421875 34.003906 C 28.550781 33.882812 28.621094 33.703125 28.621094 33.527344 C 28.621094 33.347656 28.550781 33.175781 28.421875 33.050781 C 28.171875 32.796875 27.707031 32.796875 27.457031 33.050781 C 27.328125 33.175781 27.253906 33.351562 27.253906 33.527344 C 27.253906 33.707031 27.328125 33.882812 27.457031 34.003906 C 27.582031 34.132812 27.761719 34.203125 27.9375 34.203125 Z M 27.9375 34.203125 "/>
<path style=" stroke:none;fill-rule:nonzero;fill:rgb(21.176471%,14.117647%,12.54902%);fill-opacity:1;" d="M 30.675781 34.203125 C 30.855469 34.203125 31.03125 34.132812 31.160156 34.003906 C 31.285156 33.882812 31.359375 33.703125 31.359375 33.527344 C 31.359375 33.351562 31.285156 33.175781 31.160156 33.050781 C 30.902344 32.796875 30.445312 32.796875 30.191406 33.050781 C 30.0625 33.175781 29.988281 33.351562 29.988281 33.527344 C 29.988281 33.707031 30.0625 33.882812 30.191406 34.003906 C 30.320312 34.132812 30.496094 34.203125 30.675781 34.203125 Z M 30.675781 34.203125 "/>
<path style=" stroke:none;fill-rule:nonzero;fill:rgb(21.176471%,14.117647%,12.54902%);fill-opacity:1;" d="M 32.042969 31.496094 C 32.222656 31.496094 32.402344 31.425781 32.527344 31.296875 C 32.65625 31.175781 32.726562 30.996094 32.726562 30.820312 C 32.726562 30.644531 32.65625 30.46875 32.527344 30.34375 C 32.273438 30.089844 31.816406 30.089844 31.5625 30.34375 C 31.433594 30.46875 31.359375 30.644531 31.359375 30.820312 C 31.359375 31 31.433594 31.175781 31.5625 31.296875 C 31.6875 31.425781 31.863281 31.496094 32.042969 31.496094 Z M 32.042969 31.496094 "/>
<path style=" stroke:none;fill-rule:nonzero;fill:rgb(21.176471%,14.117647%,12.54902%);fill-opacity:1;" d="M 29.304688 31.496094 C 29.488281 31.496094 29.664062 31.425781 29.789062 31.296875 C 29.917969 31.175781 29.992188 30.996094 29.992188 30.820312 C 29.992188 30.644531 29.917969 30.46875 29.789062 30.34375 C 29.535156 30.089844 29.078125 30.089844 28.824219 30.34375 C 28.695312 30.46875 28.625 30.644531 28.625 30.820312 C 28.625 30.996094 28.695312 31.175781 28.824219 31.296875 C 28.949219 31.425781 29.128906 31.496094 29.304688 31.496094 Z M 29.304688 31.496094 "/>
<path style=" stroke:none;fill-rule:nonzero;fill:rgb(21.176471%,14.117647%,12.54902%);fill-opacity:1;" d="M 26.570312 31.5 C 26.75 31.5 26.929688 31.425781 27.054688 31.296875 C 27.183594 31.171875 27.257812 30.996094 27.257812 30.820312 C 27.257812 30.644531 27.183594 30.46875 27.054688 30.34375 C 26.800781 30.089844 26.339844 30.089844 26.089844 30.34375 C 25.960938 30.46875 25.886719 30.644531 25.886719 30.820312 C 25.886719 30.996094 25.960938 31.171875 26.089844 31.296875 C 26.214844 31.425781 26.390625 31.5 26.570312 31.5 Z M 26.570312 31.5 "/>
<path style=" stroke:none;fill-rule:nonzero;fill:rgb(21.176471%,14.117647%,12.54902%);fill-opacity:1;" d="M 23.832031 31.5 C 24.015625 31.5 24.191406 31.425781 24.316406 31.296875 C 24.445312 31.171875 24.519531 30.996094 24.519531 30.820312 C 24.519531 30.644531 24.445312 30.46875 24.316406 30.34375 C 24.0625 30.089844 23.605469 30.089844 23.351562 30.34375 C 23.222656 30.46875 23.148438 30.644531 23.148438 30.820312 C 23.148438 30.996094 23.222656 31.171875 23.351562 31.296875 C 23.476562 31.425781 23.65625 31.5 23.832031 31.5 Z M 23.832031 31.5 "/>
<path style=" stroke:none;fill-rule:nonzero;fill:rgb(21.176471%,14.117647%,12.54902%);fill-opacity:1;" d="M 21.097656 31.496094 C 21.277344 31.496094 21.457031 31.425781 21.582031 31.296875 C 21.710938 31.175781 21.78125 30.996094 21.78125 30.820312 C 21.78125 30.644531 21.710938 30.46875 21.582031 30.34375 C 21.328125 30.089844 20.871094 30.089844 20.617188 30.34375 C 20.488281 30.46875 20.414062 30.644531 20.414062 30.820312 C 20.414062 30.996094 20.488281 31.175781 20.617188 31.296875 C 20.742188 31.425781 20.921875 31.496094 21.097656 31.496094 Z M 21.097656 31.496094 "/>
<path style=" stroke:none;fill-rule:nonzero;fill:rgb(21.176471%,14.117647%,12.54902%);fill-opacity:1;" d="M 19.734375 34.203125 C 19.910156 34.203125 20.089844 34.132812 20.214844 34.003906 C 20.34375 33.882812 20.414062 33.703125 20.414062 33.527344 C 20.414062 33.351562 20.34375 33.175781 20.214844 33.050781 C 19.960938 32.796875 19.5 32.796875 19.25 33.050781 C 19.121094 33.175781 19.046875 33.351562 19.046875 33.527344 C 19.046875 33.707031 19.121094 33.878906 19.246094 34.003906 C 19.375 34.132812 19.550781 34.203125 19.734375 34.203125 Z M 19.734375 34.203125 "/>
<path style=" stroke:none;fill-rule:nonzero;fill:rgb(21.176471%,14.117647%,12.54902%);fill-opacity:1;" d="M 18.359375 31.496094 C 18.542969 31.496094 18.71875 31.425781 18.84375 31.296875 C 18.972656 31.175781 19.046875 30.996094 19.046875 30.820312 C 19.046875 30.644531 18.972656 30.46875 18.84375 30.34375 C 18.589844 30.089844 18.132812 30.089844 17.878906 30.34375 C 17.75 30.46875 17.675781 30.644531 17.675781 30.820312 C 17.675781 30.996094 17.75 31.175781 17.878906 31.296875 C 18.003906 31.425781 18.183594 31.496094 18.359375 31.496094 Z M 18.359375 31.496094 "/>
<path style=" stroke:none;fill-rule:nonzero;fill:rgb(21.176471%,14.117647%,12.54902%);fill-opacity:1;" d="M 24.761719 36.640625 C 24.941406 36.640625 25.121094 36.570312 25.246094 36.441406 C 25.375 36.316406 25.449219 36.140625 25.449219 35.964844 C 25.449219 35.789062 25.375 35.609375 25.246094 35.488281 C 24.992188 35.234375 24.53125 35.234375 24.28125 35.488281 C 24.152344 35.609375 24.078125 35.789062 24.078125 35.964844 C 24.078125 36.140625 24.152344 36.316406 24.28125 36.441406 C 24.40625 36.570312 24.585938 36.640625 24.761719 36.640625 Z M 24.761719 36.640625 "/>
</g>
</svg>
